<svg display="none" xmlns="http://www.w3.org/2000/svg" xmlns:xlink="http://www.w3.org/1999/xlink"><symbol fill="none" viewBox="0 0 14 14" id="arrow"><g clip-path="url(#aa)"><path fill="currentColor" d="M14.001 4.163a1 1 0 0 1-.37.78l-6 4.83a1 1 0 0 1-1.27 0l-6-5a1.001 1.001 0 0 1 1.28-1.54l5.36 4.47 5.36-4.32a1 1 0 0 1 1.64.78Z"/></g><defs><clipPath id="aa"><path fill="currentColor" d="M0 0h14v14H0z" transform="translate(0 -.001)"/></clipPath></defs></symbol><symbol fill="none" viewBox="0 0 50 50" id="box"><path fill="currentColor" d="M49.523 12.16 25.385.09a.862.862 0 0 0-.77 0L.477 12.16A.862.862 0 0 0 0 12.93V37.07a.862.862 0 0 0 .477.776l24.138 12.07a.861.861 0 0 0 .77 0l24.138-12.07A.862.862 0 0 0 50 37.07V12.931a.862.862 0 0 0-.477-.771ZM25 24.037l-6.739-3.37 21.54-11.442 7.414 3.706L25 24.037Zm-13.635-6.819 21.54-11.442 5 2.5L16.366 19.72l-5.002-2.502Zm-1.02 1.419 5.172 2.586v6.869l-1.976-1.977a.862.862 0 0 0-.61-.252h-2.586v-7.226ZM25 1.827l6.01 3.001L9.47 16.272l-6.68-3.34L25 1.825Zm-23.276 12.5 6.897 3.447v8.95a.862.862 0 0 0 .862.863h3.091l3.196 3.195a.862.862 0 0 0 1.471-.61v-8.087l6.897 3.448v22.21L1.724 36.537v-22.21Zm24.138 33.416v-22.21l22.414-11.207v22.21L25.862 47.744Z"/></symbol><symbol fill="none" viewBox="0 0 51 51" id="castling"><path fill="currentColor" d="M2.59 35.973h13.269v12.5a2.5 2.5 0 0 0 2.5 2.5h20a2.5 2.5 0 0 0 2.5-2.5v-20a2.5 2.5 0 0 0-2.5-2.5h-12.5v-13.27a1.748 1.748 0 0 0-.52-1.24 1.726 1.726 0 0 0-1.211-.49H3.358a2.5 2.5 0 0 0-2.5 2.5v20.769c.002.467.189.913.52 1.24a1.73 1.73 0 0 0 1.211.491Zm19.935 0h.834a2.5 2.5 0 0 0 2.5-2.5v-.834h8.333v11.667H22.525v-8.333Zm1.667-2.5c0 .46-.373.833-.833.833H5.903l18.289-18.288v17.455Zm14.166-5.833c.461 0 .834.373.834.833v20c0 .46-.373.833-.834.833h-20a.833.833 0 0 1-.833-.833v-12.5h3.334v8.333c0 .92.746 1.667 1.666 1.667h11.667c.92 0 1.667-.746 1.667-1.667V32.64c0-.92-.747-1.667-1.667-1.667h-8.334V27.64h12.5ZM24.192 12.704v.957L3.547 34.306h-.958l-.064-.064v-1.27L22.854 12.64h1.274l.064.064ZM3.359 12.64h17.138L2.525 30.61V13.473c0-.46.373-.833.834-.833ZM33.163 1.1a1.667 1.667 0 0 0-1.834.378l-5.47 5.816a1.667 1.667 0 0 0-.018 2.34l5.505 5.85a1.667 1.667 0 0 0 2.845-1.178v-2.5h5.834v6.667h-2.5a1.668 1.668 0 0 0-1.16 2.863l5.815 5.47c.314.314.74.49 1.185.49.432.002.847-.168 1.153-.472l5.852-5.506a1.667 1.667 0 0 0-1.178-2.845h-2.5V7.639a2.5 2.5 0 0 0-2.5-2.5h-10v-2.5c0-.674-.407-1.282-1.03-1.54Zm11.029 5.706c.46 0 .833.373.833.833v11.667c0 .46.373.833.833.833l3.352-.017-5.87 5.488-5.815-5.47h3.333c.46 0 .833-.374.833-.834v-7.5c0-.92-.746-1.667-1.666-1.667h-6.667a.834.834 0 0 0-.833.834l.017 3.35-5.487-5.868 5.47-5.816v3.334c0 .46.373.833.833.833h10.834Z"/></symbol><symbol fill="none" viewBox="0 0 52 44" id="certificate"><path fill="currentColor" d="M2.426 0A2.41 2.41 0 0 0 0 2.407v30.508c0 1.32 1.08 2.406 2.426 2.406h25.782l-2.085 3.58c-.358.615.207 1.354.902 1.178l3.628-.942.974 3.616c.186.691 1.122.814 1.484.194l4.444-7.626h2.731l4.438 7.626c.361.62 1.297.497 1.484-.194l.98-3.616 3.622.943c.697.183 1.27-.561.908-1.18l-2.092-3.589a2.414 2.414 0 0 0 2.201-2.396V2.407C51.827 1.064 50.725 0 49.393 0H2.426Zm0 1.607h46.967c.463 0 .813.357.813.8v30.508c0 .446-.357.8-.813.8h-.696L45.9 28.906a7.952 7.952 0 0 0 1.085-4.022c0-4.424-3.63-8.03-8.093-8.03-4.462 0-8.1 3.606-8.1 8.03 0 1.482.41 2.878 1.12 4.072l-2.772 4.759H2.426a.797.797 0 0 1-.806-.8V2.407c0-.443.344-.8.806-.8Zm17.82 3.205c-1.082 0-1.082 1.582 0 1.606H31.58c1.09 0 1.09-1.582 0-1.606H20.246Zm-12.96 5.625H44.54c1.085 0 1.085-1.606 0-1.606H7.286c-1.08 0-1.08 1.606 0 1.606Zm0 2.405c-1.08 0-1.08 1.607 0 1.607H44.54c1.081 0 1.081-1.607 0-1.607H7.286Zm31.605 5.618c3.556 0 6.48 2.867 6.48 6.424 0 3.557-2.924 6.426-6.48 6.426-3.587 0-6.48-2.87-6.48-6.426s2.893-6.424 6.48-6.424Zm-.732 1.831-.946 2.35-2.447.206c-.7.06-.983.968-.449 1.443l1.862 1.66-.565 2.476c-.164.712.582 1.274 1.183.892l2.096-1.326 2.096 1.323c.6.378 1.342-.181 1.181-.89l-.568-2.478 1.862-1.66c.532-.476.248-1.382-.453-1.441l-2.446-.207-.948-2.35a.762.762 0 0 0-.73-.504c-.341 0-.59.193-.728.506Zm.73 2.448.402.996c.114.282.37.476.665.502l1.037.086-.787.704a.84.84 0 0 0-.255.812l.24 1.052-.888-.561a.767.767 0 0 0-.824 0l-.888.561.24-1.049a.84.84 0 0 0-.255-.815l-.791-.701 1.037-.09a.794.794 0 0 0 .668-.501l.4-.996ZM7.287 28.897c-1.077 0-1.077 1.605 0 1.605h11.34c1.087 0 1.087-1.605 0-1.605H7.286Zm37.563 1.42 4.497 7.724-2.53-.657a.81.81 0 0 0-.985.568l-.681 2.513-4.514-7.744a8.091 8.091 0 0 0 4.213-2.403Zm-11.884.04a8.112 8.112 0 0 0 4.224 2.378l-4.498 7.73-.681-2.513a.81.81 0 0 0-.992-.568l-2.529.657 4.476-7.685Zm5.956 2.623.43.738h-.86l.43-.738Z"/></symbol><symbol fill="none" viewBox="0 0 14 14" id="check"><path fill="currentColor" d="M.162 8.05A.6.6 0 0 1 0 7.665a.6.6 0 0 1 .162-.385l.753-.77a.513.513 0 0 1 .754 0l.054.055L4.685 9.81c.107.11.269.11.377 0l7.215-7.645h.054a.513.513 0 0 1 .754 0l.753.77a.54.54 0 0 1 0 .77l-8.615 9.13a.484.484 0 0 1-.377.165.484.484 0 0 1-.377-.165l-4.2-4.62-.107-.165Z"/><defs><linearGradient id="ea" gradientUnits="userSpaceOnUse" x1="7" x2="7" y1="2" y2="13"><stop stop-color="#48FFFF"/><stop offset=".963" stop-color="#25A4F1"/></linearGradient></defs></symbol><symbol fill="none" viewBox="0 0 50 51" id="garage"><path fill="currentColor" d="M13.333 45.833h-1.667V47.5h1.667v-1.667Z"/><path fill="currentColor" d="M30.832 35.833H16.666v-12.5a.833.833 0 0 0-.834-.833h-15a.833.833 0 0 0-.833.833V50a.833.833 0 0 0 .833.833h30a.833.833 0 0 0 .834-.833V36.667a.833.833 0 0 0-.834-.834ZM21.666 37.5h3.333v3.333h-3.333V37.5Zm-15-13.333h3.333V27.5H6.666v-3.333Zm-5 0h3.333v4.166a.833.833 0 0 0 .833.834h5a.834.834 0 0 0 .834-.834v-4.166h3.333v11.666H1.666V24.167Zm5 13.333h3.333v3.333H6.666V37.5Zm-5 0h3.333v4.167a.833.833 0 0 0 .833.833h5a.833.833 0 0 0 .834-.833V37.5h3.333v11.666H1.666V37.5Zm28.333 11.666H16.666V37.5h3.333v4.167a.833.833 0 0 0 .833.833h5a.833.833 0 0 0 .834-.833V37.5h3.333v11.666Z"/><path fill="currentColor" d="M28.333 45.833h-1.667V47.5h1.667v-1.667ZM13.333 32.5h-1.667v1.667h1.667V32.5Z"/><path fill="currentColor" d="M48.97 10.81a.83.83 0 0 0 .917-.392.857.857 0 0 0 .112-.437V6.667a.833.833 0 0 0-.638-.81L25.195.023a.83.83 0 0 0-.392 0L.637 5.857a.833.833 0 0 0-.638.81v3.31a.835.835 0 0 0 1.029.834l1.471-.356v10.378h1.667v-10.78l20.833-5.03 20.833 5.03v39.114h-5v-32.5a.833.833 0 0 0-.833-.834h-30a.833.833 0 0 0-.833.834V20a.833.833 0 0 0 .833.833h29.167V22.5H18.332v1.667h20.834v1.666H18.332V27.5h20.834v1.667H18.332v1.666h20.834v18.334h-5.834v1.666H50v-1.666h-2.5V10.454l1.471.355Zm-38.138 8.357V17.5h28.334v1.667H10.832ZM25 3.333a.827.827 0 0 0-.195.024L1.665 8.942v-1.62l23.333-5.631 23.333 5.632v1.619L25.195 3.357a.827.827 0 0 0-.196-.024Z"/><path fill="currentColor" d="M26.665 13.334a2.5 2.5 0 1 0 0-5h-3.333a2.5 2.5 0 0 0 0 5h3.333Zm-4.166-2.5a.834.834 0 0 1 .833-.834h3.333a.834.834 0 1 1 0 1.667h-3.333a.834.834 0 0 1-.833-.833Z"/></symbol><symbol fill="none" viewBox="0 0 36 50" id="hourglass"><path fill="currentColor" d="M28.674 19.524c2.54-3.653 4.18-8.26 4.39-12.235h1.483c.47 0 .852-.382.852-.853V.852A.852.852 0 0 0 34.547 0H.852A.852.852 0 0 0 0 .852v5.584c0 .471.382.853.852.853h1.484c.21 3.975 1.85 8.582 4.388 12.234 1.69 2.431 3.64 4.296 5.72 5.478-2.079 1.18-4.03 3.042-5.72 5.475-2.538 3.653-4.179 8.26-4.388 12.235H.852a.852.852 0 0 0-.852.853v5.584c0 .47.382.852.852.852h33.695c.47 0 .852-.381.852-.852v-5.584a.852.852 0 0 0-.852-.853h-1.484c-.21-3.975-1.85-8.582-4.388-12.234-1.689-2.432-3.642-4.296-5.724-5.475 2.083-1.184 4.037-3.048 5.723-5.478ZM1.704 5.584v-3.88h31.99v3.88m0 38.832v3.88H1.704v-3.88m18.953-20.21c-.722.246-.72 1.35.002 1.595 2.387.899 4.675 2.852 6.616 5.648 2.349 3.38 3.873 7.614 4.084 11.262H4.04c.21-3.647 1.735-7.883 4.083-11.262 1.943-2.797 4.229-4.75 6.612-5.648.721-.246.723-1.349 0-1.595-2.383-.904-4.67-2.859-6.612-5.655-2.348-3.38-3.872-7.614-4.083-11.262h27.317c-.21 3.647-1.735 7.883-4.084 11.262-1.939 2.794-4.227 4.749-6.617 5.655Z"/><path fill="currentColor" d="M6.815 40.4c0 .47.382.852.853.852H27.73c.47 0 .853-.382.853-.853a5.388 5.388 0 0 0-5.383-5.381H12.197a5.387 5.387 0 0 0-5.382 5.381Zm19.964-.853H8.62a3.684 3.684 0 0 1 3.578-2.825h11.004a3.682 3.682 0 0 1 3.577 2.825ZM26.561 10.593H8.838a.852.852 0 0 0-.853.852c0 5.331 4.333 11.77 9.715 11.77 5.38 0 9.714-6.44 9.714-11.77a.852.852 0 0 0-.853-.852ZM17.7 21.51c-4.046 0-7.55-4.87-7.968-9.213h15.936c-.42 4.343-3.922 9.213-7.968 9.213ZM17.7 27.272c.47 0 .852-.38.852-.852V25a.852.852 0 1 0-1.704 0v1.42c0 .47.382.852.852.852ZM16.848 31.084a.852.852 0 1 0 1.704 0v-.982a.852.852 0 1 0-1.704 0v.982Z"/></symbol><symbol fill="none" viewBox="0 0 16 16" id="lock"><path fill="currentColor" d="M6.578 6v1.333h2.844V6c0-.735-.638-1.333-1.422-1.333-.784 0-1.422.598-1.422 1.333Z"/><path fill="currentColor" fill-rule="evenodd" clip-rule="evenodd" d="M8 16A8 8 0 1 0 8 0a8 8 0 0 0 0 16Zm2.133-10v1.333H11.2V12H4.8V7.333h1.067V6c0-1.104.955-2 2.133-2s2.133.896 2.133 2Z"/></symbol><symbol viewBox="0 0 33 33" id="phone"><path fill="currentColor" d="M16.5 0A16.5 16.5 0 1 0 33 16.5 16.5 16.5 0 0 0 16.5 0Zm7.09 21.39a5.1 5.1 0 0 1-.21.7 2.77 2.77 0 0 1-1.25 1.08 3.92 3.92 0 0 1-1.9.52 4.89 4.89 0 0 1-.54-.03 6.54 6.54 0 0 1-1.07-.28l-.57-.21-.5-.18a9.28 9.28 0 0 1-1.79-.85 15.28 15.28 0 0 1-2.7-2.2 15.28 15.28 0 0 1-2.2-2.7 9.57 9.57 0 0 1-.85-1.79 20.45 20.45 0 0 0-.39-1.07 6.52 6.52 0 0 1-.15-.49 5.72 5.72 0 0 1-.13-.58 4.89 4.89 0 0 1-.03-.54 3.92 3.92 0 0 1 .52-1.9 2.77 2.77 0 0 1 1.08-1.25 5.1 5.1 0 0 1 .7-.21 3.29 3.29 0 0 1 .72-.1.6.6 0 0 1 .22.03c.12.04.3.3.54.77l.3.56.36.64.32.55.18.26a2.7 2.7 0 0 1 .22.36.82.82 0 0 1 .07.29.84.84 0 0 1-.29.51 4.84 4.84 0 0 1-.64.56 6.62 6.62 0 0 0-.63.54c-.19.2-.29.35-.29.47a.74.74 0 0 0 .05.23.72.72 0 0 0 .09.21 2.76 2.76 0 0 0 .14.25l.12.19a10.18 10.18 0 0 0 4.18 4.18 1.74 1.74 0 0 0 .19.12 2.76 2.76 0 0 0 .25.14.72.72 0 0 0 .21.09.74.74 0 0 0 .23.05c.12 0 .27-.1.47-.29a8.14 8.14 0 0 0 .54-.63 4.84 4.84 0 0 1 .56-.64.84.84 0 0 1 .51-.29.65.65 0 0 1 .29.07 2.7 2.7 0 0 1 .36.22l.26.18.54.32.65.36.56.3c.47.24.73.42.77.54a.6.6 0 0 1 .03.22 3.29 3.29 0 0 1-.1.72Z"/></symbol><symbol fill="none" viewBox="0 0 50 36" id="track"><path fill="currentColor" d="M11.667 25.834c-2.758 0-5 2.242-5 5 0 2.757 2.242 5 5 5s5-2.243 5-5c0-2.758-2.243-5-5-5Zm0 8.333a3.337 3.337 0 0 1-3.333-3.334 3.337 3.337 0 0 1 3.333-3.333A3.337 3.337 0 0 1 15 30.834a3.337 3.337 0 0 1-3.333 3.333ZM40 25.834c-2.758 0-5 2.242-5 5 0 2.757 2.242 5 5 5s5-2.243 5-5c0-2.758-2.242-5-5-5Zm0 8.333a3.337 3.337 0 0 1-3.333-3.334A3.337 3.337 0 0 1 40 27.5a3.337 3.337 0 0 1 3.333 3.334A3.337 3.337 0 0 1 40 34.166Z"/><path fill="currentColor" d="m49.868 21.216-7.5-11.666a.834.834 0 0 0-.701-.383H32.5a.833.833 0 0 0-.833.833v20.834c0 .46.372.833.833.833h3.334V30h-2.5V10.834h7.878l7.122 11.078V30h-4.167v1.667h5c.46 0 .833-.372.833-.833v-9.167a.831.831 0 0 0-.132-.45Z"/><path fill="currentColor" d="M36.667 20v-5.833h6.666V12.5h-7.5a.833.833 0 0 0-.833.833v7.5c0 .461.373.834.833.834h12.5V20H36.667ZM32.5 3.333H.833A.834.834 0 0 0 0 4.167v26.666c0 .461.373.834.833.834H7.5V30H1.667V5h30v25H15.833v1.667H32.5c.46 0 .833-.373.833-.834V4.168a.833.833 0 0 0-.833-.833Z"/><path fill="currentColor" d="M5.833 26.667h-5v1.667h5v-1.667ZM31.667 26.667H17.5v1.667h14.167v-1.667ZM49.167 26.667h-3.333v1.667h3.333v-1.667ZM32.5 6.667H3.333v1.666H32.5V6.666ZM12.5 30h-1.667v1.667H12.5V30ZM40.834 30h-1.667v1.667h1.667V30ZM15 0H3.333v1.667H15V0ZM1.667 0H0v1.667h1.667V0Z"/></symbol>
<symbol viewBox="0 0 25 25" fill="none" id="burger-menu"><path fill-rule="evenodd" clip-rule="evenodd" d="M2.2041 12.9658C2.2041 12.4135 2.65182 11.9658 3.2041 11.9658H21.2041C21.7564 11.9658 22.2041 12.4135 22.2041 12.9658C22.2041 13.5181 21.7564 13.9658 21.2041 13.9658H3.2041C2.65182 13.9658 2.2041 13.5181 2.2041 12.9658Z" fill="currentColor"/><path fill-rule="evenodd" clip-rule="evenodd" d="M2.2041 6.96582C2.2041 6.41354 2.65182 5.96582 3.2041 5.96582H21.2041C21.7564 5.96582 22.2041 6.41354 22.2041 6.96582C22.2041 7.51811 21.7564 7.96582 21.2041 7.96582H3.2041C2.65182 7.96582 2.2041 7.51811 2.2041 6.96582Z" fill="currentColor"/><path fill-rule="evenodd" clip-rule="evenodd" d="M2.2041 18.9658C2.2041 18.4135 2.65182 17.9658 3.2041 17.9658H21.2041C21.7564 17.9658 22.2041 18.4135 22.2041 18.9658C22.2041 19.5181 21.7564 19.9658 21.2041 19.9658H3.2041C2.65182 19.9658 2.2041 19.5181 2.2041 18.9658Z" fill="currentColor"/></symbol>
<symbol viewBox="0 0 24 25" fill="none" id="cross"><path fill-rule="evenodd" clip-rule="evenodd" d="M18.6977 5.81633C19.0883 6.20685 19.0883 6.84002 18.6977 7.23054L6.69774 19.2305C6.30721 19.6211 5.67405 19.6211 5.28352 19.2305C4.893 18.84 4.893 18.2069 5.28352 17.8163L17.2835 5.81633C17.674 5.42581 18.3072 5.42581 18.6977 5.81633Z" fill="currentColor"/><path fill-rule="evenodd" clip-rule="evenodd" d="M5.28352 5.81633C5.67405 5.42581 6.30721 5.42581 6.69774 5.81633L18.6977 17.8163C19.0883 18.2069 19.0883 18.84 18.6977 19.2305C18.3072 19.6211 17.674 19.6211 17.2835 19.2305L5.28352 7.23054C4.893 6.84002 4.893 6.20685 5.28352 5.81633Z" fill="currentColor"/></symbol></svg>