<svg width="14" height="14" viewBox="0 0 14 14" fill="none" xmlns="http://www.w3.org/2000/svg">
<g clip-path="url(#clip0_1519_8840)">
<path d="M14.0013 4.16251C14.0018 4.31191 13.9688 4.45952 13.9048 4.5945C13.8407 4.72947 13.7473 4.84839 13.6313 4.94251L7.63125 9.77251C7.45232 9.91959 7.22788 10 6.99625 10C6.76463 10 6.54018 9.91959 6.36125 9.77251L0.361252 4.77251C0.157035 4.60277 0.028611 4.35886 0.00423124 4.09444C-0.0201485 3.83001 0.0615134 3.56673 0.231252 3.36251C0.40099 3.1583 0.644902 3.02987 0.909328 3.00549C1.17375 2.98111 1.43704 3.06277 1.64125 3.23251L7.00125 7.70251L12.3613 3.38251C12.508 3.26023 12.6868 3.18255 12.8763 3.15867C13.0659 3.13479 13.2583 3.16571 13.4308 3.24777C13.6034 3.32982 13.7488 3.45958 13.8499 3.62169C13.9509 3.7838 14.0035 3.97148 14.0013 4.16251Z" fill="white"/>
</g>
<defs>
<clipPath id="clip0_1519_8840">
<rect width="14" height="14" fill="white" transform="translate(0 -0.000976562)"/>
</clipPath>
</defs>
</svg>
