<svg width="25" height="25" viewBox="0 0 25 25" fill="none" xmlns="http://www.w3.org/2000/svg">
<path fill-rule="evenodd" clip-rule="evenodd" d="M2.2041 12.9658C2.2041 12.4135 2.65182 11.9658 3.2041 11.9658H21.2041C21.7564 11.9658 22.2041 12.4135 22.2041 12.9658C22.2041 13.5181 21.7564 13.9658 21.2041 13.9658H3.2041C2.65182 13.9658 2.2041 13.5181 2.2041 12.9658Z" fill="black"/>
<path fill-rule="evenodd" clip-rule="evenodd" d="M2.2041 6.96582C2.2041 6.41354 2.65182 5.96582 3.2041 5.96582H21.2041C21.7564 5.96582 22.2041 6.41354 22.2041 6.96582C22.2041 7.51811 21.7564 7.96582 21.2041 7.96582H3.2041C2.65182 7.96582 2.2041 7.51811 2.2041 6.96582Z" fill="black"/>
<path fill-rule="evenodd" clip-rule="evenodd" d="M2.2041 18.9658C2.2041 18.4135 2.65182 17.9658 3.2041 17.9658H21.2041C21.7564 17.9658 22.2041 18.4135 22.2041 18.9658C22.2041 19.5181 21.7564 19.9658 21.2041 19.9658H3.2041C2.65182 19.9658 2.2041 19.5181 2.2041 18.9658Z" fill="black"/>
</svg>
