<svg width="51" height="51" viewBox="0 0 51 51" fill="none" xmlns="http://www.w3.org/2000/svg">
<path d="M2.58906 35.9732H15.8587V48.473C15.8587 49.8536 16.9778 50.973 18.3585 50.973H38.3585C39.7394 50.973 40.8585 49.8536 40.8585 48.473V28.4729C40.8585 27.092 39.7394 25.9729 38.3585 25.9729H25.8585V12.7038C25.8573 12.2372 25.6705 11.7904 25.3385 11.463C25.0147 11.1474 24.5798 10.9716 24.1278 10.9732H3.35871C1.97779 10.9732 0.858398 12.0922 0.858398 13.4729V34.242C0.859619 34.7086 1.047 35.1554 1.37842 35.4828C1.70252 35.7984 2.13709 35.9741 2.58906 35.9732V35.9732ZM22.5253 35.9732H23.3588C24.7394 35.9732 25.8585 34.8535 25.8585 33.4729V32.6395H34.1916V44.3064H22.5253V35.9732ZM24.1919 33.4729C24.1919 33.9331 23.8187 34.3064 23.3588 34.3064H5.90327L24.1919 16.018V33.4729ZM38.3585 27.6395C38.819 27.6395 39.1919 28.0127 39.1919 28.4729V48.473C39.1919 48.9332 38.819 49.3061 38.3585 49.3061H18.3585C17.8982 49.3061 17.5253 48.9332 17.5253 48.473V35.9732H20.8585V44.3064C20.8585 45.2268 21.6046 45.973 22.5253 45.973H34.1916C35.1123 45.973 35.8588 45.2268 35.8588 44.3064V32.6395C35.8588 31.7194 35.1123 30.9729 34.1916 30.9729H25.8585V27.6395H38.3585ZM24.1919 12.7038V13.6612L3.5467 34.3064H2.58906L2.52497 34.242V32.9727L22.8537 12.6397H24.1278L24.1919 12.7038ZM3.35871 12.6397H20.4968L2.52497 30.6113V13.4729C2.52497 13.0127 2.8982 12.6397 3.35871 12.6397Z" fill="white"/>
<path d="M33.1625 1.09932C32.5311 0.838395 31.8048 0.988236 31.3293 1.47835L25.8581 7.29441C25.2142 7.93833 25.2066 8.9802 25.8407 9.63359L31.3464 15.4844C31.8231 15.9611 32.54 16.1033 33.1625 15.8455C33.7854 15.5876 34.1913 14.9803 34.1913 14.3061V11.8061H40.0247V18.4727H37.525C36.846 18.4727 36.2354 18.8847 35.9799 19.5137C35.7251 20.1427 35.8774 20.8638 36.3651 21.3359L42.1796 26.8062C42.4939 27.1205 42.9206 27.2969 43.3649 27.296C43.7967 27.2978 44.2118 27.1281 44.5182 26.8239L50.3699 21.3176C50.8463 20.8412 50.9891 20.1243 50.7313 19.5018C50.4734 18.8789 49.8655 18.473 49.1916 18.4727H46.6913V7.63926C46.6913 6.25864 45.5722 5.13955 44.1916 5.13955H34.1913V2.63924C34.1919 1.96511 33.7854 1.3572 33.1625 1.09932V1.09932ZM44.1916 6.80612C44.6515 6.80612 45.0248 7.17905 45.0248 7.63926V19.3062C45.0248 19.7661 45.3977 20.1393 45.8582 20.1393L49.21 20.1222L43.3399 25.6096L37.525 20.1393H40.8582C41.3184 20.1393 41.6913 19.7661 41.6913 19.3062V11.8061C41.6913 10.8854 40.9452 10.1393 40.0247 10.1393H33.3582C32.898 10.1393 32.5247 10.5125 32.5247 10.973L32.5424 14.3238L27.0547 8.4553L32.5247 2.63924V5.97269C32.5247 6.43289 32.898 6.80612 33.3582 6.80612H44.1916Z" fill="white"/>
</svg>
