<svg width="14" height="14" viewBox="0 0 14 14" fill="none" xmlns="http://www.w3.org/2000/svg">
<path d="M0.161538 8.05C0.0538462 7.94 0 7.775 0 7.665C0 7.555 0.0538462 7.39 0.161538 7.28L0.915385 6.51C1.13077 6.29 1.45385 6.29 1.66923 6.51L1.72308 6.565L4.68462 9.81C4.79231 9.92 4.95385 9.92 5.06154 9.81L12.2769 2.165H12.3308V2.165C12.5462 1.945 12.8692 1.945 13.0846 2.165L13.8385 2.935C14.0538 3.155 14.0538 3.485 13.8385 3.705V3.705L5.22308 12.835C5.11538 12.945 5.00769 13 4.84615 13C4.68462 13 4.57692 12.945 4.46923 12.835L0.269231 8.215L0.161538 8.05Z" fill="url(#paint0_linear_1523_12)"/>
<defs>
<linearGradient id="paint0_linear_1523_12" x1="7" y1="2" x2="7" y2="13" gradientUnits="userSpaceOnUse">
<stop stop-color="#48FFFF"/>
<stop offset="0.963205" stop-color="#25A4F1"/>
</linearGradient>
</defs>
</svg>
