<svg width="24" height="25" viewBox="0 0 24 25" fill="none" xmlns="http://www.w3.org/2000/svg">
<path fill-rule="evenodd" clip-rule="evenodd" d="M18.6977 5.81633C19.0883 6.20685 19.0883 6.84002 18.6977 7.23054L6.69774 19.2305C6.30721 19.6211 5.67405 19.6211 5.28352 19.2305C4.893 18.84 4.893 18.2069 5.28352 17.8163L17.2835 5.81633C17.674 5.42581 18.3072 5.42581 18.6977 5.81633Z" fill="black"/>
<path fill-rule="evenodd" clip-rule="evenodd" d="M5.28352 5.81633C5.67405 5.42581 6.30721 5.42581 6.69774 5.81633L18.6977 17.8163C19.0883 18.2069 19.0883 18.84 18.6977 19.2305C18.3072 19.6211 17.674 19.6211 17.2835 19.2305L5.28352 7.23054C4.893 6.84002 4.893 6.20685 5.28352 5.81633Z" fill="black"/>
</svg>
