<svg width="50" height="51" viewBox="0 0 50 51" fill="none" xmlns="http://www.w3.org/2000/svg">
<path d="M13.3327 45.833H11.666V47.4997H13.3327V45.833Z" fill="white"/>
<path d="M30.8322 35.8333H16.6656V23.3333C16.6656 23.1123 16.5778 22.9004 16.4215 22.7441C16.2653 22.5878 16.0533 22.5 15.8323 22.5H0.832353C0.61134 22.5 0.39938 22.5878 0.2431 22.7441C0.0868204 22.9004 -0.000976562 23.1123 -0.000976562 23.3333V49.9999C-0.000976562 50.2209 0.0868204 50.4329 0.2431 50.5891C0.39938 50.7454 0.61134 50.8332 0.832353 50.8332H30.8322C31.0532 50.8332 31.2652 50.7454 31.4215 50.5891C31.5778 50.4329 31.6655 50.2209 31.6655 49.9999V36.6666C31.6655 36.4456 31.5778 36.2336 31.4215 36.0773C31.2652 35.9211 31.0532 35.8333 30.8322 35.8333ZM21.6656 37.4999H24.9989V40.8333H21.6656V37.4999ZM6.66566 24.1667H9.99898V27.5H6.66566V24.1667ZM1.66568 24.1667H4.999V28.3333C4.999 28.5543 5.0868 28.7663 5.24308 28.9226C5.39936 29.0788 5.61132 29.1666 5.83233 29.1666H10.8323C11.0533 29.1666 11.2653 29.0788 11.4216 28.9226C11.5778 28.7663 11.6656 28.5543 11.6656 28.3333V24.1667H14.999V35.8333H1.66568V24.1667ZM6.66566 37.4999H9.99898V40.8333H6.66566V37.4999ZM1.66568 37.4999H4.999V41.6666C4.999 41.8876 5.0868 42.0996 5.24308 42.2558C5.39936 42.4121 5.61132 42.4999 5.83233 42.4999H10.8323C11.0533 42.4999 11.2653 42.4121 11.4216 42.2558C11.5778 42.0996 11.6656 41.8876 11.6656 41.6666V37.4999H14.999V49.1665H1.66568V37.4999ZM29.9989 49.1665H16.6656V37.4999H19.9989V41.6666C19.9989 41.8876 20.0867 42.0996 20.243 42.2558C20.3993 42.4121 20.6112 42.4999 20.8323 42.4999H25.8322C26.0533 42.4999 26.2652 42.4121 26.4215 42.2558C26.5778 42.0996 26.6656 41.8876 26.6656 41.6666V37.4999H29.9989V49.1665Z" fill="white"/>
<path d="M28.3327 45.833H26.666V47.4997H28.3327V45.833Z" fill="white"/>
<path d="M13.3327 32.5H11.666V34.1667H13.3327V32.5Z" fill="white"/>
<path d="M48.9701 10.81C49.0341 10.8255 49.0997 10.8333 49.1656 10.8333C49.3116 10.8332 49.4551 10.7948 49.5816 10.722C49.7082 10.6492 49.8135 10.5445 49.887 10.4183C49.9627 10.2851 50.0014 10.134 49.9989 9.98082V6.66666C49.9989 6.47967 49.936 6.29811 49.8203 6.1512C49.7046 6.00428 49.5429 5.90054 49.3611 5.85667L25.1945 0.0233607C25.0661 -0.00778691 24.932 -0.00778691 24.8035 0.0233607L0.636949 5.85667C0.455172 5.90054 0.293435 6.00428 0.17775 6.1512C0.0620647 6.29811 -0.000844983 6.47967 -0.000861057 6.66666V9.97634C-0.00370921 10.1508 0.046174 10.3221 0.142263 10.4678C0.237617 10.608 0.373419 10.7159 0.531592 10.777C0.689764 10.8381 0.862804 10.8496 1.02768 10.81L2.49913 10.4549V20.8333H4.16579V10.0526L24.999 5.02386L45.8323 10.0526V49.1665H40.8323V16.6666C40.8323 16.4456 40.7445 16.2336 40.5882 16.0774C40.4319 15.9211 40.22 15.8333 39.999 15.8333H9.99909C9.77808 15.8333 9.56612 15.9211 9.40984 16.0774C9.25356 16.2336 9.16576 16.4456 9.16576 16.6666V19.9999C9.16576 20.221 9.25356 20.4329 9.40984 20.5892C9.56612 20.7455 9.77808 20.8333 9.99909 20.8333H39.1656V22.4999H18.3324V24.1666H39.1656V25.8332H18.3324V27.4999H39.1656V29.1666H18.3324V30.8332H39.1656V49.1665H33.3323V50.8331H49.9989V49.1665H47.4989V10.4549L48.9701 10.81ZM10.8324 19.1666V17.4999H39.1656V19.1666H10.8324ZM24.999 3.33335C24.9332 3.33331 24.8675 3.34115 24.8035 3.35668L1.6658 8.94155V7.32291L24.999 1.69064L48.3323 7.32291V8.94165L25.1945 3.35668C25.1305 3.34115 25.0649 3.33331 24.999 3.33335V3.33335Z" fill="white"/>
<path d="M26.6653 13.3335C27.3284 13.3335 27.9643 13.0701 28.4331 12.6012C28.9019 12.1324 29.1653 11.4965 29.1653 10.8335C29.1653 10.1704 28.9019 9.53456 28.4331 9.06573C27.9643 8.59689 27.3284 8.3335 26.6653 8.3335H23.332C22.669 8.3335 22.0331 8.59689 21.5643 9.06573C21.0954 9.53456 20.832 10.1704 20.832 10.8335C20.832 11.4965 21.0954 12.1324 21.5643 12.6012C22.0331 13.0701 22.669 13.3335 23.332 13.3335H26.6653ZM22.4987 10.8335C22.4989 10.6125 22.5868 10.4007 22.743 10.2445C22.8993 10.0883 23.1111 10.0004 23.332 10.0002H26.6653C26.8864 10.0002 27.0983 10.088 27.2546 10.2442C27.4109 10.4005 27.4987 10.6125 27.4987 10.8335C27.4987 11.0545 27.4109 11.2665 27.2546 11.4227C27.0983 11.579 26.8864 11.6668 26.6653 11.6668H23.332C23.1111 11.6666 22.8993 11.5787 22.743 11.4225C22.5868 11.2662 22.4989 11.0544 22.4987 10.8335Z" fill="white"/>
</svg>
