<svg width="36" height="50" viewBox="0 0 36 50" fill="none" xmlns="http://www.w3.org/2000/svg">
<path d="M28.6744 19.5239C31.2131 15.871 32.8534 11.2642 33.0631 7.28864H34.5466C35.017 7.28864 35.3989 6.90739 35.3989 6.43636V0.852273C35.3989 0.38125 35.017 0 34.5466 0H0.852273C0.381818 0 0 0.38125 0 0.852273V6.43636C0 6.90739 0.381818 7.28864 0.852273 7.28864H2.33579C2.54545 11.2642 4.1858 15.871 6.72386 19.5233C8.41307 21.9545 10.3648 23.8193 12.4437 25.0011C10.3653 26.1801 8.41307 28.0432 6.72443 30.4761C4.18579 34.129 2.54545 38.7358 2.33579 42.7114H0.852273C0.381818 42.7114 0 43.0926 0 43.5636V49.1477C0 49.6187 0.381818 50 0.852273 50H34.5472C35.0176 50 35.3994 49.6187 35.3994 49.1477V43.5636C35.3994 43.0926 35.0176 42.7114 34.5472 42.7114H33.0631C32.8534 38.7358 31.2131 34.129 28.675 30.4767C26.9864 28.0449 25.033 26.1812 22.9511 25.0017C25.0341 23.8182 26.9875 21.954 28.6744 19.5239V19.5239ZM1.70455 5.58409V1.70455H33.6949V5.58409M33.6943 44.4159V48.2955H1.70455V44.4159M20.6574 24.2057C19.9352 24.4517 19.9369 25.5551 20.6585 25.8006C23.046 26.7 25.3341 28.6534 27.275 31.4489H27.2756C29.6239 34.8284 31.1477 39.0631 31.3585 42.7114H4.04091C4.25114 39.0636 5.77557 34.8284 8.12443 31.4489C10.067 28.6517 12.3528 26.6983 14.7358 25.8006C15.4574 25.5551 15.4591 24.4523 14.7369 24.2057C12.3528 23.3023 10.0659 21.3472 8.12386 18.5511C5.77557 15.1716 4.2517 10.9369 4.04091 7.28864H31.358C31.1477 10.9364 29.6233 15.1716 27.2744 18.5511C25.3352 21.3449 23.0472 23.3 20.6574 24.2057V24.2057Z" fill="white"/>
<path d="M6.81543 40.3994C6.81543 40.8704 7.19725 41.2517 7.6677 41.2517H27.7313C28.2018 41.2517 28.5836 40.8704 28.5836 40.3994C28.5836 37.4318 26.1694 35.0176 23.2012 35.0176H12.1972C9.22964 35.017 6.81543 37.4312 6.81543 40.3994ZM26.7791 39.5471H8.61998C9.0052 37.9289 10.4632 36.7221 12.1978 36.7221H23.2018C24.9359 36.7216 26.3944 37.9289 26.7791 39.5471Z" fill="white"/>
<path d="M26.5615 10.5928H8.83762C8.36717 10.5928 7.98535 10.974 7.98535 11.445C7.98535 16.7763 12.3183 23.2149 17.6996 23.2149C23.0808 23.2149 27.4138 16.7757 27.4138 11.445C27.4138 10.974 27.0319 10.5928 26.5615 10.5928V10.5928ZM17.6996 21.5104C13.6535 21.5104 10.1507 16.6405 9.73194 12.2973H25.6677C25.2484 16.6405 21.7456 21.5104 17.6996 21.5104V21.5104Z" fill="white"/>
<path d="M17.6999 27.2724C18.1704 27.2724 18.5522 26.8911 18.5522 26.4201V25.0002C18.5522 24.5292 18.1704 24.1479 17.6999 24.1479C17.2295 24.1479 16.8477 24.5292 16.8477 25.0002V26.4201C16.8477 26.8906 17.2295 27.2724 17.6999 27.2724Z" fill="white"/>
<path d="M16.8477 31.0842C16.8477 31.5552 17.2295 31.9364 17.6999 31.9364C18.1704 31.9364 18.5522 31.5552 18.5522 31.0842V30.1018C18.5522 29.6308 18.1704 29.2495 17.6999 29.2495C17.2295 29.2495 16.8477 29.6308 16.8477 30.1018V31.0842Z" fill="white"/>
</svg>
