<svg xmlns="http://www.w3.org/2000/svg" data-name="Layer 1" viewBox="0 0 33 33">
  <path fill="#fff" d="M16.5 0A16.5 16.5 0 1 0 33 16.5 16.5 16.5 0 0 0 16.5 0Zm7.09 21.39a5.1 5.1 0 0 1-.21.7 2.77 2.77 0 0 1-1.25 1.08 3.92 3.92 0 0 1-1.9.52 4.89 4.89 0 0 1-.54-.03 6.54 6.54 0 0 1-1.07-.28l-.57-.21-.5-.18a9.28 9.28 0 0 1-1.79-.85 15.28 15.28 0 0 1-2.7-2.2 15.28 15.28 0 0 1-2.2-2.7 9.57 9.57 0 0 1-.85-1.79 20.45 20.45 0 0 0-.39-1.07 6.52 6.52 0 0 1-.15-.49 5.72 5.72 0 0 1-.13-.58 4.89 4.89 0 0 1-.03-.54 3.92 3.92 0 0 1 .52-1.9 2.77 2.77 0 0 1 1.08-1.25 5.1 5.1 0 0 1 .7-.21 3.29 3.29 0 0 1 .72-.1.6.6 0 0 1 .22.03c.12.04.3.3.54.77l.3.56.36.64.32.55.18.26a2.7 2.7 0 0 1 .22.36.82.82 0 0 1 .07.29.84.84 0 0 1-.29.51 4.84 4.84 0 0 1-.64.56 6.62 6.62 0 0 0-.63.54c-.19.2-.29.35-.29.47a.74.74 0 0 0 .05.23.72.72 0 0 0 .09.21 2.76 2.76 0 0 0 .14.25l.12.19a10.18 10.18 0 0 0 4.18 4.18 1.74 1.74 0 0 0 .19.12 2.76 2.76 0 0 0 .25.14.72.72 0 0 0 .21.09.74.74 0 0 0 .23.05c.12 0 .27-.1.47-.29a8.14 8.14 0 0 0 .54-.63 4.84 4.84 0 0 1 .56-.64.84.84 0 0 1 .51-.29.65.65 0 0 1 .29.07 2.7 2.7 0 0 1 .36.22l.26.18.54.32.65.36.56.3c.47.24.73.42.77.54a.6.6 0 0 1 .03.22 3.29 3.29 0 0 1-.1.72Z"/>
</svg>
