<svg display="none" xmlns="http://www.w3.org/2000/svg" xmlns:xlink="http://www.w3.org/1999/xlink"><symbol fill="none" viewBox="0 0 154 29" id="logo"><path fill="currentColor" d="m19.038 3.262-2.66 5.586c-1.723-1.57-3.332-2.356-4.826-2.356-1.014 0-1.736.228-2.166.684a2.327 2.327 0 0 0-.608 1.596c0 .481.19.9.57 1.254.38.355.747.595 1.102.722.38.127.874.254 1.482.38 1.165.279 2.166.595 3.002.95.836.33 1.684.824 2.546 1.482.886.633 1.558 1.495 2.014 2.584.481 1.09.722 2.382.722 3.876 0 2.66-.9 4.788-2.698 6.384-1.774 1.57-4.206 2.356-7.296 2.356-1.723 0-3.332-.317-4.826-.95-1.495-.659-3.205-1.76-5.13-3.306L3.8 18.842c2.457 2.356 4.661 3.534 6.612 3.534.76 0 1.38-.177 1.862-.532.506-.38.76-.95.76-1.71 0-.33-.038-.633-.114-.912a1.599 1.599 0 0 0-.418-.722 4.628 4.628 0 0 0-.57-.494c-.152-.152-.431-.304-.836-.456-.38-.152-.684-.266-.912-.342-.203-.076-.57-.19-1.102-.342a31.178 31.178 0 0 1-1.14-.342 36.96 36.96 0 0 1-1.52-.494c-.406-.177-.938-.469-1.596-.874-.659-.43-1.204-.9-1.634-1.406-.431-.532-.811-1.241-1.14-2.128-.304-.886-.456-1.875-.456-2.964 0-2.28.81-4.18 2.432-5.7C5.674 1.413 7.98.64 10.944.64c2.938 0 5.636.874 8.094 2.622ZM23.657 28V1.4h15.96v6.384h-8.512v3.724h7.714v5.852h-7.714v4.256h8.512V28h-15.96ZM41.76 28l3.876-26.6h7.448l4.674 16.226L62.432 1.4h7.448L73.756 28h-7.144l-1.976-15.428L60.152 28h-4.788L50.88 12.572 48.904 28H41.76ZM76.687 28V1.4h7.448V28h-7.448ZM92.657 28V7.784h-5.852V1.4h19.152v6.384h-5.852V28h-7.448ZM108.601 28V1.4h15.96v6.384h-8.512v3.724h7.714v5.852h-7.714v4.256h8.512V28h-15.96ZM125.906 28l9.727-13.984L126.855 1.4h8.931l3.952 7.182 3.951-7.182h8.437l-8.323 12.236L153.531 28h-8.778l-5.015-8.778L134.417 28h-8.511Z"/></symbol></svg>