<svg width="154" height="29" viewBox="0 0 154 29" fill="none" xmlns="http://www.w3.org/2000/svg">
<path d="M19.0376 3.26214L16.3776 8.84814C14.655 7.27747 13.0463 6.49214 11.5516 6.49214C10.5383 6.49214 9.81629 6.72014 9.38562 7.17614C8.98029 7.63214 8.77763 8.16414 8.77763 8.77214C8.77763 9.25347 8.96762 9.67147 9.34762 10.0261C9.72762 10.3808 10.095 10.6215 10.4496 10.7481C10.8296 10.8748 11.3236 11.0015 11.9316 11.1281C13.097 11.4068 14.0976 11.7235 14.9336 12.0781C15.7696 12.4075 16.6183 12.9015 17.4796 13.5601C18.3663 14.1935 19.0376 15.0548 19.4936 16.1441C19.975 17.2335 20.2156 18.5255 20.2156 20.0201C20.2156 22.6801 19.3163 24.8081 17.5176 26.4041C15.7443 27.9748 13.3123 28.7601 10.2216 28.7601C8.49896 28.7601 6.89029 28.4435 5.39563 27.8101C3.90096 27.1515 2.19096 26.0495 0.265625 24.5041L3.79963 18.8421C6.25696 21.1981 8.46096 22.3761 10.4116 22.3761C11.1716 22.3761 11.7923 22.1988 12.2736 21.8441C12.7803 21.4641 13.0336 20.8941 13.0336 20.1341C13.0336 19.8048 12.9956 19.5008 12.9196 19.2221C12.8436 18.9435 12.7043 18.7028 12.5016 18.5001C12.299 18.2975 12.109 18.1328 11.9316 18.0061C11.7796 17.8541 11.501 17.7021 11.0956 17.5501C10.7156 17.3981 10.4116 17.2841 10.1836 17.2081C9.98096 17.1321 9.61363 17.0181 9.08162 16.8661C8.54963 16.7141 8.16963 16.6001 7.94163 16.5241C7.35896 16.3468 6.85229 16.1821 6.42163 16.0301C6.01629 15.8528 5.48429 15.5615 4.82562 15.1561C4.16696 14.7255 3.62229 14.2568 3.19163 13.7501C2.76096 13.2181 2.38096 12.5088 2.05163 11.6221C1.74763 10.7355 1.59563 9.74747 1.59563 8.65814C1.59563 6.37814 2.40629 4.47814 4.02763 2.95814C5.67429 1.4128 7.97963 0.640137 10.9436 0.640137C13.8823 0.640137 16.5803 1.51414 19.0376 3.26214Z" fill="currentColor"/>
<path d="M23.6573 28.0001V1.40014H39.6173V7.78414H31.1053V11.5081H38.8193V17.3601H31.1053V21.6161H39.6173V28.0001H23.6573Z" fill="currentColor"/>
<path d="M41.7601 28.0001L45.6361 1.40014H53.0841L57.7581 17.6261L62.4321 1.40014H69.8801L73.7561 28.0001H66.6121L64.6361 12.5721L60.1521 28.0001H55.3641L50.8801 12.5721L48.9041 28.0001H41.7601Z" fill="currentColor"/>
<path d="M76.6866 28.0001V1.40014H84.1346V28.0001H76.6866Z" fill="currentColor"/>
<path d="M92.6567 28.0001V7.78414H86.8047V1.40014H105.957V7.78414H100.105V28.0001H92.6567Z" fill="currentColor"/>
<path d="M108.601 28.0001V1.40014H124.561V7.78414H116.049V11.5081H123.763V17.3601H116.049V21.6161H124.561V28.0001H108.601Z" fill="currentColor"/>
<path d="M125.906 28.0001L135.633 14.0161L126.855 1.40014H135.786L139.738 8.58214L143.689 1.40014H152.126L143.803 13.6361L153.531 28.0001H144.753L139.738 19.2221L134.417 28.0001H125.906Z" fill="currentColor"/>
</svg>
